<svg xmlns="http://www.w3.org/2000/svg" viewBox="0 0 100 150" width="100" height="150">
  <!-- Shotgun / Interference-Tube — fictional. Exported from micArt.tsx (Skia) 2026-08-12. -->
  <defs>
    <linearGradient id="tube" gradientUnits="userSpaceOnUse" x1="44" y1="0" x2="56" y2="0">
      <stop offset="0" stop-color="#6e7482"/>
      <stop offset="0.42" stop-color="#3b3f49"/>
      <stop offset="1" stop-color="#15161b"/>
    </linearGradient>
    <linearGradient id="base" gradientUnits="userSpaceOnUse" x1="42" y1="0" x2="58" y2="0">
      <stop offset="0" stop-color="#6e7482"/>
      <stop offset="0.42" stop-color="#3b3f49"/>
      <stop offset="1" stop-color="#15161b"/>
    </linearGradient>
  </defs>
  <rect x="44" y="8" width="12" height="104" rx="6" ry="6" fill="url(#tube)"/>
  <line x1="46.5" y1="16" x2="53.5" y2="16" stroke="#15161b" stroke-width="2.4"/>
  <line x1="46.5" y1="26" x2="53.5" y2="26" stroke="#15161b" stroke-width="2.4"/>
  <line x1="46.5" y1="36" x2="53.5" y2="36" stroke="#15161b" stroke-width="2.4"/>
  <line x1="46.5" y1="46" x2="53.5" y2="46" stroke="#15161b" stroke-width="2.4"/>
  <line x1="46.5" y1="56" x2="53.5" y2="56" stroke="#15161b" stroke-width="2.4"/>
  <line x1="46.5" y1="66" x2="53.5" y2="66" stroke="#15161b" stroke-width="2.4"/>
  <line x1="46.5" y1="76" x2="53.5" y2="76" stroke="#15161b" stroke-width="2.4"/>
  <line x1="46.5" y1="86" x2="53.5" y2="86" stroke="#15161b" stroke-width="2.4"/>
  <line x1="46.5" y1="96" x2="53.5" y2="96" stroke="#15161b" stroke-width="2.4"/>
  <rect x="42" y="112" width="16" height="30" rx="6" ry="6" fill="url(#base)"/>
  <rect x="42" y="112" width="16" height="5" rx="2" ry="2" fill="#ffc64d" opacity="0.55"/>
  <line x1="46" y1="12" x2="46" y2="108" stroke="rgba(255,255,255,0.35)" stroke-width="1.1" opacity="0.5"/>
</svg>
